<svg width="114" height="25" viewBox="0 0 114 25" fill="none" xmlns="http://www.w3.org/2000/svg">
<path d="M0.296 11.028C0.296 10.584 0.404 10.272 0.62 10.092C0.836 9.912 1.094 9.822 1.394 9.822C1.706 9.822 1.97 9.912 2.186 10.092C2.414 10.272 2.528 10.584 2.528 11.028C2.528 11.46 2.414 11.772 2.186 11.964C1.97 12.156 1.706 12.252 1.394 12.252C1.094 12.252 0.836 12.156 0.62 11.964C0.404 11.772 0.296 11.46 0.296 11.028ZM4.82441 16.482L6.60641 4.8C7.63241 2.262 9.37841 1.236 12.4384 1.236L11.9164 3.774C12.4384 2.784 13.2124 2.262 13.9684 1.758C14.7244 1.236 15.7504 1.002 16.7764 1.002H17.0104C17.2624 1.002 17.5324 1.002 17.7664 1.002L16.7764 5.826C16.3804 5.628 15.9844 5.556 15.7504 5.556C15.4804 5.556 15.2284 5.556 14.9944 5.556C13.9684 5.556 12.9424 5.826 12.4384 6.582C11.9164 7.086 11.4304 8.094 11.1604 9.624L10.1704 16.482H4.82441ZM31.291 0.965999H36.385L34.351 16.518H29.167L29.509 14.178C28.033 15.618 27.331 16.5 24.937 16.5C23.371 16.5 22.111 15.978 21.085 14.7C20.095 13.44 19.573 11.91 19.573 9.858C19.573 7.32 20.095 5.268 21.355 3.756C22.885 2.244 24.667 0.965999 26.719 0.965999C28.321 0.965999 30.085 1.92 31.021 3L31.291 0.965999ZM30.283 8.328C30.517 7.32 30.283 6.33 30.013 5.79C29.509 5.034 28.987 4.53 28.213 4.53C27.475 4.278 26.719 4.764 25.927 5.538C25.171 6.33 24.937 7.32 24.667 8.868C24.415 9.858 24.667 10.632 24.937 11.406C25.441 12.162 25.927 12.414 26.719 12.684C27.475 12.684 28.483 12.414 28.987 11.658C29.743 10.902 30.283 9.606 30.283 8.328ZM63.9185 2.244C64.9625 3.306 64.9625 4.35 64.9625 5.952C64.9625 6.744 64.8905 7.554 63.3605 16.5H58.1045L59.4185 8.58C59.4185 7.014 59.5985 5.556 57.3125 5.43C55.6385 5.34 54.3425 6.69 54.1265 8.58L52.8125 16.5H47.5385L48.8705 8.58C48.8705 7.05 48.9245 5.43 46.7465 5.43C44.4425 5.43 43.6145 6.978 43.3265 9.642L42.2825 16.5H36.9905L38.3045 5.7C39.6185 3.306 41.2205 1.47 44.1185 1.47L43.8485 4.098C44.6405 3.306 45.9545 2.244 46.7465 1.722C47.5385 1.2 48.6185 0.93 49.3925 0.93C50.9765 0.93 52.5605 1.47 53.3345 2.244C53.8745 2.784 54.3965 3.306 54.3965 4.098C55.1885 3.036 56.5205 2.244 57.3125 1.722C58.1045 1.2 59.1485 0.93 59.9405 0.93C61.5245 0.93 63.0905 1.47 63.9185 2.244ZM92.6588 2.244C93.7028 3.306 93.7028 4.35 93.7028 5.952C93.7028 6.744 93.6308 7.554 92.1008 16.5H86.8448L88.1588 8.58C88.1588 7.014 88.3388 5.556 86.0528 5.43C84.3788 5.34 83.0828 6.69 82.8668 8.58L81.5528 16.5H76.2788L77.6108 8.58C77.6108 7.05 77.6648 5.43 75.4868 5.43C73.1828 5.43 72.3548 6.978 72.0668 9.642L71.0228 16.5H65.7308L67.0448 5.7C68.3588 3.306 69.9608 1.47 72.8588 1.47L72.5888 4.098C73.3808 3.306 74.6948 2.244 75.4868 1.722C76.2788 1.2 77.3588 0.93 78.1328 0.93C79.7168 0.93 81.3008 1.47 82.0748 2.244C82.6148 2.784 83.1368 3.306 83.1368 4.098C83.9288 3.036 85.2608 2.244 86.0528 1.722C86.8448 1.2 87.8888 0.93 88.6808 0.93C90.2648 0.93 91.8308 1.47 92.6588 2.244ZM99.061 16.374L94.507 0.965999H100.501C102.175 9.084 102.409 9.84 102.481 10.65C102.967 9.192 103.309 8.472 107.071 0.965999H113.065L100.501 24.348H94.507L99.061 16.374Z" fill="white"/>
</svg>
